<?xml version="1.0" encoding="UTF-8"?>
<svg fill="none" viewBox="0 0 191 134" xmlns="http://www.w3.org/2000/svg"><g clip-path="url(#a)"><path d="m0 0.31787v133h191v-133h-191zm185.38 49.541h-103.9c7.7126-2.9662 15.238-7.1852 17.69-12.86 1.0675-2.4688 1.6665-6.3746-1.4602-10.98-3.407-5.0296-7.4318-5.8771-10.165-5.6929-8.8546 0.5527-18.046 12.694-23.681 21.703v-36.184h121.51v44.014zm-118.98-1.1791c5.8968-10.17 15.032-22.422 21.509-22.827h0.3183c1.1981 0 2.9016 0.4606 4.811 3.261 1.872 2.7635 1.4415 4.6059 0.9547 5.7481-2.602 6.043-16.53 11.165-27.593 13.836v-0.0185zm-8.1432-42.835v35.521c-5.6722-8.9171-14.62-20.487-23.25-21.021-2.7331-0.1658-6.7579 0.6817-10.165 5.6929-3.1262 4.6059-2.5272 8.5117-1.4601 10.98 2.4523 5.6745 9.9777 9.8935 17.69 12.86h-35.456v-44.032h52.641zm-2.0966 42.816c-11.064-2.6714-24.991-7.7748-27.593-13.836-0.4867-1.1423-0.9173-2.9662 0.9547-5.7482 1.9095-2.8004 3.613-3.261 4.8111-3.261h0.3182c6.4771 0.4054 15.612 12.657 21.509 22.827v0.0184zm-50.544 6.7246h49.084l-26.77 26.346 3.9687 3.9058 26.339-25.922v68.075h-52.622v-72.405zm58.257 72.405v-68.923l27.2 26.77 3.9687-3.9058-26.77-26.346h117.11v72.405h-121.51z" fill="#F58220"/></g><defs><clipPath id="a"><rect transform="translate(0 .31787)" width="191" height="133" fill="#fff"/></clipPath></defs></svg>

